<?xml version="1.0" standalone="no"?>
<!DOCTYPE svg PUBLIC "-//W3C//DTD SVG 20010904//EN"
 "http://www.w3.org/TR/2001/REC-SVG-20010904/DTD/svg10.dtd">
<svg version="1.0" xmlns="http://www.w3.org/2000/svg"
 width="323.000000pt" height="323.000000pt" viewBox="0 0 323.000000 323.000000"
 preserveAspectRatio="xMidYMid meet">
<metadata>
Created by potrace 1.14, written by Peter Selinger 2001-2017
</metadata>
<g transform="translate(0.000000,323.000000) scale(0.100000,-0.100000)"
fill="#000000" stroke="none">
<path d="M1510 2700 c-128 -23 -313 -126 -421 -234 -91 -91 -156 -217 -204
-396 -34 -128 -37 -149 -51 -415 -10 -184 -13 -356 -9 -500 10 -342 38 -484
112 -566 32 -35 40 -39 84 -39 36 0 49 4 49 14 0 10 16 17 48 21 69 9 72 11
72 49 0 65 10 69 38 13 l27 -52 65 -3 c52 -2 67 0 77 14 12 17 14 17 26 1 9
-13 46 -20 166 -33 171 -18 163 -20 177 50 l8 41 4 -47 c2 -33 9 -51 20 -56 9
-5 73 -17 142 -26 69 -10 152 -27 184 -37 105 -33 149 -22 185 49 47 94 66
251 76 622 3 129 10 300 15 380 15 228 12 469 -6 558 -31 152 -99 287 -198
391 -135 142 -326 223 -416 176 -27 -14 -32 -13 -68 5 -44 23 -137 32 -202 20z
m317 -492 c75 -53 163 -145 163 -169 0 -5 -22 -9 -49 -9 -82 0 -112 -10 -109
-34 3 -19 8 -21 73 -18 114 4 127 -1 170 -65 24 -36 31 -54 21 -50 -9 4 -58 9
-109 13 -109 7 -201 -7 -233 -37 -18 -17 -23 -18 -31 -6 -21 37 -87 48 -128
21 -23 -15 -26 -15 -41 1 -46 46 -141 71 -284 74 -46 1 -86 3 -87 5 -6 6 94
144 132 181 56 54 143 99 235 120 41 10 93 23 115 30 53 16 64 13 162 -57z
m-384 -322 c32 -9 67 -25 78 -35 23 -21 28 -77 10 -108 -9 -15 -10 -12 -11 18
0 41 -32 83 -77 100 -34 13 -133 20 -133 9 0 -5 -15 -12 -32 -15 -18 -4 -40
-13 -48 -21 -70 -63 -80 -76 -80 -99 0 -30 16 -33 25 -5 7 23 16 25 34 8 11
-11 12 -10 6 1 -5 9 2 21 21 37 39 32 44 30 44 -16 0 -31 -4 -40 -17 -40 -42
0 4 -12 93 -25 116 -17 123 -17 106 -7 -10 7 -10 15 -2 37 6 16 8 42 4 59 l-6
31 21 -19 c12 -11 26 -36 32 -57 11 -34 9 -42 -15 -83 -49 -83 -107 -105 -215
-81 -39 9 -81 25 -95 36 -33 26 -51 106 -42 191 8 70 12 79 41 97 26 16 181 8
258 -13z m613 -37 c90 -16 97 -26 92 -134 -7 -154 -41 -190 -178 -190 -108 0
-147 21 -179 94 -11 28 -21 58 -21 68 0 26 35 80 60 93 20 11 21 10 10 -10 -6
-12 -10 -40 -9 -63 3 -36 1 -42 -15 -39 -11 2 -15 -1 -11 -7 4 -7 50 -10 123
-10 64 1 107 4 94 6 -16 3 -22 9 -18 20 3 8 6 29 6 46 l0 31 38 -37 c27 -27
43 -35 59 -31 19 5 20 9 11 30 -6 13 -15 24 -19 24 -4 0 -10 9 -14 19 -5 17
-42 39 -53 32 -2 -1 -11 6 -20 16 -9 10 -26 19 -37 21 -64 9 -94 8 -128 -4
-20 -7 -44 -11 -52 -8 -11 5 -15 -1 -16 -22 0 -16 -4 -38 -9 -49 -7 -16 -9
-11 -9 22 -1 35 3 45 26 60 45 30 170 40 269 22z m-357 -25 c26 -21 31 -33 31
-68 0 -51 25 -128 57 -178 59 -88 252 -107 335 -31 17 15 18 15 18 -5 0 -48
-42 -130 -102 -199 -98 -113 -201 -196 -254 -206 -18 -3 -45 -9 -60 -13 -26
-7 -24 -3 21 36 61 52 84 85 39 55 -120 -79 -193 -82 -288 -10 -56 43 -61 31
-7 -18 35 -32 105 -57 157 -57 9 0 12 -5 8 -11 -9 -16 -102 -5 -185 21 -63 19
-71 25 -153 118 -147 166 -196 256 -196 361 l0 46 19 -30 c23 -39 54 -59 113
-73 71 -18 143 -15 188 8 30 15 50 38 83 95 24 41 47 72 50 69 3 -3 3 12 0 34
-5 35 -2 40 28 60 44 28 61 27 98 -4z m-344 -25 c0 -7 -8 -15 -17 -17 -18 -3
-25 18 -11 32 10 10 28 1 28 -15z m546 -52 c-5 -5 -17 -7 -26 -3 -14 5 -15 9
-5 21 10 12 16 13 27 4 9 -8 10 -16 4 -22z m-855 -203 c-12 -31 -26 0 -19 41
l7 40 9 -32 c5 -18 7 -40 3 -49z m4 -113 c6 -28 9 -54 6 -60 -3 -5 0 -12 6
-14 8 -3 6 -6 -4 -6 -10 -1 -18 -5 -18 -11 0 -5 5 -9 12 -7 8 1 12 -25 14 -86
2 -87 2 -89 -19 -83 -12 3 -26 6 -30 6 -5 0 -5 42 -1 93 5 50 7 122 7 160 -2
77 9 80 27 8z m1153 -152 c-3 -10 -9 -19 -14 -19 -11 0 -12 21 -3 45 9 23 23
0 17 -26z m-3 -43 c0 -8 -4 -17 -9 -21 -12 -7 -24 12 -16 25 9 15 25 12 25 -4z
m0 -100 c0 -30 -4 -58 -10 -61 -6 -4 -10 17 -10 54 0 34 4 61 10 61 6 0 10
-24 10 -54z"/>
<path d="M1285 2042 c-35 -22 -60 -50 -52 -58 3 -4 26 2 51 11 34 13 58 16 93
10 86 -13 115 -11 126 7 14 22 8 28 -40 39 -65 15 -145 11 -178 -9z"/>
<path d="M1539 1535 c-5 -60 31 -95 97 -95 69 0 114 54 84 100 -8 13 -10 12
-10 -2 0 -28 -37 -58 -71 -58 -40 0 -65 14 -83 48 -13 23 -15 24 -17 7z"/>
<path d="M1355 1411 c-3 -5 3 -16 13 -23 10 -7 24 -28 31 -46 30 -73 162 -162
240 -162 43 0 144 54 176 94 17 21 43 51 59 67 34 35 24 56 -21 44 -44 -11
-264 -8 -308 4 -22 6 -61 11 -87 11 -26 0 -50 5 -53 10 -8 13 -42 13 -50 1z
m313 -61 c25 0 42 -5 42 -11 0 -15 -163 -6 -200 11 -20 8 -11 9 45 5 39 -3 89
-5 113 -5z m-61 -116 c-3 -3 -12 -4 -19 -1 -8 3 -5 6 6 6 11 1 17 -2 13 -5z
m40 0 c-3 -3 -12 -4 -19 -1 -8 3 -5 6 6 6 11 1 17 -2 13 -5z m6 -41 c-7 -2
-21 -2 -30 0 -10 3 -4 5 12 5 17 0 24 -2 18 -5z"/>
<path d="M1030 1275 c0 -19 5 -35 10 -35 6 0 10 16 10 35 0 19 -4 35 -10 35
-5 0 -10 -16 -10 -35z"/>
</g>
</svg>
