<svg xmlns="http://www.w3.org/2000/svg" fill="none" viewBox="-0.5 -0.5 14 14" height="14" width="14"><g id="convert-PDF-2--essential-files-folder-convert-to-PDF"><path id="Vector" fill="#d7e0ff" d="M11.607142857142858 11.607142857142858a0.9285714285714286 0.9285714285714286 0 0 1 -0.9285714285714286 0.9285714285714286h-8.357142857142858a0.9285714285714286 0.9285714285714286 0 0 1 -0.9285714285714286 -0.9285714285714286v-10.214285714285715a0.9285714285714286 0.9285714285714286 0 0 1 0.9285714285714286 -0.9285714285714286H8.357142857142858L11.607142857142858 3.7142857142857144v7.892857142857143Z" stroke-width="1"></path><path id="Vector_2" stroke="#f40f02" stroke-linecap="round" stroke-linejoin="round" d="M11.607142857142858 11.607142857142858a0.9285714285714286 0.9285714285714286 0 0 1 -0.9285714285714286 0.9285714285714286h-8.357142857142858a0.9285714285714286 0.9285714285714286 0 0 1 -0.9285714285714286 -0.9285714285714286v-10.214285714285715a0.9285714285714286 0.9285714285714286 0 0 1 0.9285714285714286 -0.9285714285714286H8.357142857142858L11.607142857142858 3.7142857142857144v7.892857142857143Z" stroke-width="1"></path><path id="Vector 1238" stroke="#f40f02" stroke-linecap="round" stroke-linejoin="round" d="M4.921428571428572 3.2657857142857143C3.719857142857143 3.6214285714285714 8.72857142857143 9.657142857142858 9.2625 8.276357142857144c0.5348571428571428 -1.3817142857142857 -6.5789285714285715 0.3992857142857143 -5.407071428571429 1.3807857142857145C5.026357142857143 10.63957142857143 6.122071428571429 2.909214285714286 4.921428571428572 3.2657857142857143Z" stroke-width="1"></path></g></svg>